# xmcd
#
# Track frame offsets:
#	150
#	30980
#	48342
#	62841
#	76016
#	95342
#	101387
#	123731
#	136390
#	150359
#
# Disc length: 2077
#
# Revision: 2
# Processed by: cddbd v1.5.1PL0 Copyright (c) Steve Scherf et al.
# Submitted via: audiograbber 1.83.01
# Normalized: r1:DSETVAR1,TDELIM( - )
#
DISCID=70081b0a
DTITLE=Various Artist - Original Blues
DYEAR=2003
DGENRE=Blues
TTITLE0=Big Joe Williams - Blues For Gamblers
TTITLE1=Sonny Terry - Rock Me Mama
TTITLE2=Big Bill Broonzy - Baby Please Don't Go
TTITLE3=Blind Lemon Jefferson - Black Snake Moan
TTITLE4=Big Joe Williams - Razor Sharp Blues
TTITLE5=Lead Belly - Big Fat Woman
TTITLE6=Big Bill Broonzy - Ridin' On Down
TTITLE7=Lightnin' Hopkins - Backwater Blues
TTITLE8=Lead Belly - De Blues
TTITLE9=Lead Belly - Borrow Love and Go
EXTD=
EXTT0=
EXTT1=
EXTT2=
EXTT3=
EXTT4=
EXTT5=
EXTT6=
EXTT7=
EXTT8=
EXTT9=
PLAYORDER=
